<svg width="32" height="32" viewBox="0 0 32 32" fill="none" xmlns="http://www.w3.org/2000/svg">
<g id="cloud-storm">
<path id="Vector (Stroke)" fill-rule="evenodd" clip-rule="evenodd" d="M20.7478 7.29789C21.473 8.12758 21.392 9.39129 20.5668 10.1204L16.1756 14.0006L20.271 15.1039C20.9796 15.2948 21.5262 15.8623 21.6931 16.5806C21.8601 17.2988 21.6203 18.0511 21.0693 18.538L13.8862 24.8851C13.061 25.6142 11.8041 25.5327 11.0789 24.703C10.3537 23.8733 10.4347 22.6096 11.2599 21.8805L15.6511 18.0004L11.5557 16.897C10.8471 16.7061 10.3005 16.1386 10.1336 15.4204C9.96661 14.7021 10.2064 13.9498 10.7574 13.4629L17.9405 7.11585C18.7657 6.38669 20.0226 6.46819 20.7478 7.29789Z" fill="#205BF1"/>
</g>
</svg>
