<svg width="254" height="77" viewBox="0 0 254 77" fill="none" xmlns="http://www.w3.org/2000/svg">
<g id="Group">
<path id="Vector" d="M79.5081 75.464C72.4404 75.464 65.7974 71.0632 61.2778 63.3693C57.3193 56.6466 55.1353 47.8298 55.1353 38.5728C55.1353 29.3007 57.3193 20.499 61.2778 13.7764C65.7974 6.09766 72.4556 1.68164 79.5081 1.68164C86.5758 1.68164 93.2188 6.08248 97.7384 13.7764C101.697 20.499 103.881 29.3159 103.881 38.5728C103.881 47.8298 101.697 56.6466 97.7384 63.3693C93.2188 71.048 86.5758 75.464 79.5081 75.464Z" fill="#1F2025" stroke="white" stroke-width="3" stroke-miterlimit="10"/>
<path id="Vector_2" d="M79.5083 68.9995C89.4091 68.9995 97.4353 55.3771 97.4353 38.573C97.4353 21.7689 89.4091 8.14648 79.5083 8.14648C69.6075 8.14648 61.5813 21.7689 61.5813 38.573C61.5813 55.3771 69.6075 68.9995 79.5083 68.9995Z" stroke="white" stroke-width="3" stroke-miterlimit="10"/>
<path id="Vector_3" d="M80.9792 1.74219L186.327 10.6501C186.327 10.6501 196.504 17.7977 196.504 38.5727C196.504 59.3477 186.327 66.4801 186.327 66.4801L80.9792 75.4032" stroke="white" stroke-width="3" stroke-miterlimit="10"/>
<path id="Vector_4" d="M189.163 13.5186L235.967 17.4793C235.967 17.4793 243.657 22.8665 243.657 38.573C243.657 54.2794 235.967 59.6515 235.967 59.6515L189.163 63.6122" stroke="white" stroke-width="3" stroke-miterlimit="10"/>
<path id="Vector_5" d="M241.458 25.5674L247.873 26.1137C247.873 26.1137 252.408 29.3005 252.408 38.5726C252.408 47.8447 247.873 51.0316 247.873 51.0316L241.458 51.5779" stroke="white" stroke-width="3" stroke-miterlimit="10"/>
<path id="Vector_6" d="M26.4097 75.464C19.342 75.464 12.699 71.0632 8.17937 63.3693C4.22087 56.6466 2.03687 47.8298 2.03687 38.5728C2.03687 29.3007 4.22087 20.499 8.17937 13.7764C12.699 6.09766 19.3572 1.68164 26.4097 1.68164C33.4774 1.68164 40.1204 6.08248 44.64 13.7764C48.5985 20.499 50.7825 29.3159 50.7825 38.5728C50.7825 47.8298 48.5985 56.6466 44.64 63.3693C40.1052 71.048 33.4622 75.464 26.4097 75.464Z" fill="#1F2025" stroke="white" stroke-width="3" stroke-miterlimit="10"/>
<path id="Vector_7" d="M26.4097 68.9995C36.3105 68.9995 44.3367 55.3771 44.3367 38.573C44.3367 21.7689 36.3105 8.14648 26.4097 8.14648C16.5089 8.14648 8.48267 21.7689 8.48267 38.573C8.48267 55.3771 16.5089 68.9995 26.4097 68.9995Z" stroke="white" stroke-width="3" stroke-miterlimit="10"/>
<path id="Vector_8" d="M68.8916 71.9277L27.8657 75.4029" stroke="white" stroke-width="3" stroke-miterlimit="10"/>
<path id="Vector_9" d="M27.8657 1.74219L68.6641 5.187" stroke="white" stroke-width="3" stroke-miterlimit="10"/>
</g>
</svg>
