<svg width="118" height="72" viewBox="0 0 118 72" fill="none" xmlns="http://www.w3.org/2000/svg">
<g id="Group">
<path id="Vector" d="M2.56323 2.82227V27.9526C2.56323 30.3654 4.51972 32.3382 6.94638 32.3382H57.0874C59.4989 32.3382 61.4705 34.2959 61.4705 36.7239V65.041C61.4705 67.4539 63.4271 69.4267 65.8537 69.4267H114.963" stroke="white" stroke-width="3" stroke-miterlimit="10"/>
<path id="Vector_2" d="M2.5632 4.9012C3.71075 4.9012 4.64102 3.97039 4.64102 2.82218C4.64102 1.67397 3.71075 0.743164 2.5632 0.743164C1.41564 0.743164 0.485352 1.67397 0.485352 2.82218C0.485352 3.97039 1.41564 4.9012 2.5632 4.9012Z" fill="white"/>
<path id="Vector_3" d="M114.933 71.5057C116.081 71.5057 117.011 70.5749 117.011 69.4267C117.011 68.2785 116.081 67.3477 114.933 67.3477C113.785 67.3477 112.855 68.2785 112.855 69.4267C112.855 70.5749 113.785 71.5057 114.933 71.5057Z" fill="white"/>
</g>
</svg>
