<svg width="56" height="56" viewBox="0 0 56 56" fill="none" xmlns="http://www.w3.org/2000/svg">
<g id="Group">
<path id="Vector" d="M28.686 0.448242H27.4424V55.8685H28.686V0.448242Z" fill="white"/>
<path id="Vector_2" d="M55.7666 28.7786V27.5342L0.377926 27.5342V28.7786L55.7666 28.7786Z" fill="white"/>
<path id="Vector_3" d="M8.9165 8.1289L8.03711 9.00879L47.2025 48.1964L48.0818 47.3165L8.9165 8.1289Z" fill="white"/>
<path id="Vector_4" d="M48.0898 8.99806L47.2104 8.11816L8.0451 47.3058L8.9245 48.1857L48.0898 8.99806Z" fill="white"/>
<path id="Vector_5" d="M28.0642 33.1053C30.7949 33.1053 33.0085 30.8903 33.0085 28.1581C33.0085 25.4259 30.7949 23.2109 28.0642 23.2109C25.3335 23.2109 23.1199 25.4259 23.1199 28.1581C23.1199 30.8903 25.3335 33.1053 28.0642 33.1053Z" fill="white"/>
</g>
</svg>
